<svg xmlns="http://www.w3.org/2000/svg" viewBox="0 0 24 23" width="24" height="23">
	<style>
		tspan { white-space:pre }
		.shp0 { fill: #ff5816 } 
	</style>
	<g id="верх">
		<path id="Forma 1" class="shp0" d="M22.69 21.04L17.26 15.59C18.66 13.99 19.42 11.98 19.42 9.88C19.42 4.98 15.29 1 10.21 1C5.13 1 1 4.98 1 9.88C1 14.78 5.13 18.76 10.21 18.76C12.12 18.76 13.93 18.21 15.49 17.16L20.96 22.64C21.19 22.87 21.49 23 21.82 23C22.14 23 22.43 22.88 22.66 22.68C23.13 22.23 23.15 21.5 22.69 21.04ZM10.21 3.32C13.96 3.32 17.02 6.26 17.02 9.88C17.02 13.5 13.96 16.45 10.21 16.45C6.46 16.45 3.4 13.5 3.4 9.88C3.4 6.26 6.46 3.32 10.21 3.32Z" />
	</g>
</svg>