<svg width="3" height="12" viewBox="0 0 3 12" fill="none" xmlns="http://www.w3.org/2000/svg">
<path d="M0.308594 10.0527C0.308594 9.74023 0.39974 9.47982 0.582031 9.27148C0.770833 9.06315 1.05078 8.95898 1.42188 8.95898C1.79297 8.95898 2.07292 9.06315 2.26172 9.27148C2.45703 9.47982 2.55469 9.74023 2.55469 10.0527C2.55469 10.3522 2.45703 10.6029 2.26172 10.8047C2.07292 11.0065 1.79297 11.1074 1.42188 11.1074C1.05078 11.1074 0.770833 11.0065 0.582031 10.8047C0.39974 10.6029 0.308594 10.3522 0.308594 10.0527ZM0.318359 1.42969C0.318359 1.11719 0.409505 0.856771 0.591797 0.648438C0.780599 0.440104 1.06055 0.335938 1.43164 0.335938C1.80273 0.335938 2.08268 0.440104 2.27148 0.648438C2.4668 0.856771 2.56445 1.11719 2.56445 1.42969C2.56445 1.72917 2.4668 1.97982 2.27148 2.18164C2.08268 2.38346 1.80273 2.48438 1.43164 2.48438C1.06055 2.48438 0.780599 2.38346 0.591797 2.18164C0.409505 1.97982 0.318359 1.72917 0.318359 1.42969Z" fill="#161616"/>
</svg>
